<?xml version="1.0" encoding="UTF-8"?>
<!-- Generator: visioncortex VTracer 0.6.3 -->
<svg version="1.1" xmlns="http://www.w3.org/2000/svg" width="1280" height="1280">
<path d="M0 0 C1.66 -0 3.33 -0 4.99 -0.01 C9.57 -0.01 14.14 -0.01 18.72 -0.01 C23.7 -0 28.67 -0.01 33.65 -0.01 C42.37 -0.02 51.1 -0.02 59.82 -0.02 C72.8 -0.02 85.77 -0.02 98.75 -0.03 C123.27 -0.04 147.79 -0.04 172.31 -0.04 C175.01 -0.04 177.71 -0.04 180.42 -0.04 C181.42 -0.04 181.42 -0.04 182.45 -0.04 C197.33 -0.04 212.2 -0.04 227.08 -0.04 C233.2 -0.04 239.33 -0.05 245.45 -0.05 C246.13 -0.05 246.81 -0.05 247.5 -0.05 C286.29 -0.05 325.08 -0.06 363.87 -0.06 C365.32 -0.06 366.77 -0.06 368.22 -0.06 C374.77 -0.06 381.33 -0.06 387.88 -0.06 C390.8 -0.06 393.72 -0.06 396.65 -0.06 C398.11 -0.06 399.57 -0.06 401.03 -0.06 C447.28 -0.06 493.52 -0.06 539.76 -0.08 C551.41 -0.08 563.06 -0.08 574.71 -0.09 C575.43 -0.09 576.14 -0.09 576.88 -0.09 C599 -0.09 621.11 -0.1 643.23 -0.1 C643.92 -0.1 644.61 -0.1 645.33 -0.1 C660.57 -0.1 675.82 -0.1 691.07 -0.1 C696.52 -0.1 701.98 -0.1 707.43 -0.1 C708.79 -0.1 710.15 -0.1 711.5 -0.1 C733.12 -0.1 754.73 -0.11 776.34 -0.11 C798.72 -0.12 821.1 -0.12 843.47 -0.12 C856.37 -0.11 869.27 -0.12 882.17 -0.13 C890.79 -0.13 899.41 -0.13 908.02 -0.12 C912.93 -0.12 917.84 -0.12 922.75 -0.13 C927.22 -0.13 931.7 -0.13 936.17 -0.12 C937.77 -0.12 939.37 -0.12 940.97 -0.13 C960.33 -0.19 984.24 0.56 999.24 14.42 C1000.96 16.14 1002.66 17.88 1004.34 19.64 C1006.46 21.82 1008.62 23.8 1010.94 25.75 C1014.32 28.65 1017.24 31.77 1020.1 35.17 C1021.16 36.42 1022.24 37.64 1023.35 38.84 C1034.02 50.43 1037.61 67.66 1038.07 83.02 C1038.09 83.68 1038.11 84.34 1038.13 85.02 C1038.2 87.18 1038.25 89.34 1038.31 91.5 C1038.33 92.25 1038.35 93 1038.38 93.77 C1038.8 109.21 1038.9 124.63 1038.89 140.07 C1038.88 143.86 1038.89 147.66 1038.89 151.46 C1038.89 158.07 1038.89 164.68 1038.89 171.29 C1038.89 181.12 1038.89 190.96 1038.89 200.79 C1038.9 218.36 1038.9 235.94 1038.89 253.51 C1038.89 268.89 1038.89 284.27 1038.89 299.65 C1038.89 300.68 1038.89 301.7 1038.89 302.76 C1038.89 306.92 1038.89 311.07 1038.89 315.23 C1038.9 354.16 1038.89 393.09 1038.89 432.02 C1038.88 466.54 1038.88 501.05 1038.89 535.56 C1038.89 574.42 1038.9 613.29 1038.89 652.15 C1038.89 656.3 1038.89 660.45 1038.89 664.6 C1038.89 665.63 1038.89 666.65 1038.89 667.7 C1038.89 683.06 1038.89 698.42 1038.89 713.79 C1038.9 731.27 1038.9 748.76 1038.89 766.24 C1038.89 776 1038.89 785.76 1038.89 795.52 C1038.89 802.07 1038.89 808.62 1038.89 815.17 C1038.88 818.88 1038.88 822.59 1038.89 826.3 C1038.9 840.95 1038.8 855.6 1038.42 870.24 C1038.38 871.71 1038.34 873.18 1038.31 874.66 C1037.89 892.65 1035.48 912.28 1022.76 926.13 C1021.11 927.48 1019.44 928.82 1017.76 930.13 C1015.95 932.1 1014.21 934.12 1012.46 936.16 C1010.33 938.63 1008.17 940.92 1005.76 943.13 C1005.1 943.13 1004.44 943.13 1003.76 943.13 C1003.5 943.72 1003.24 944.31 1002.97 944.91 C998.2 953.62 987.96 957.65 978.92 960.29 C965.41 963.96 952.13 964.28 938.19 964.26 C936.53 964.26 934.87 964.26 933.21 964.26 C928.65 964.27 924.09 964.27 919.53 964.26 C914.57 964.26 909.61 964.27 904.65 964.27 C895.95 964.27 887.26 964.28 878.57 964.27 C865.64 964.27 852.71 964.28 839.78 964.28 C815.35 964.29 790.91 964.3 766.48 964.3 C763.79 964.3 761.09 964.3 758.4 964.3 C757.73 964.3 757.06 964.3 756.37 964.3 C741.55 964.3 726.73 964.3 711.9 964.3 C705.8 964.3 699.69 964.3 693.59 964.3 C692.57 964.3 692.57 964.3 691.54 964.3 C652.89 964.31 614.23 964.31 575.57 964.31 C574.13 964.31 572.68 964.31 571.24 964.31 C564.71 964.31 558.18 964.31 551.65 964.31 C548.74 964.31 545.83 964.31 542.91 964.31 C541.46 964.31 540 964.31 538.54 964.31 C492.46 964.31 446.39 964.32 400.31 964.33 C388.7 964.34 377.09 964.34 365.48 964.34 C364.76 964.34 364.05 964.35 363.31 964.35 C341.27 964.35 319.23 964.36 297.19 964.36 C296.5 964.36 295.81 964.36 295.09 964.36 C279.9 964.36 264.71 964.36 249.51 964.36 C244.08 964.36 238.64 964.36 233.2 964.36 C231.85 964.36 230.5 964.36 229.14 964.36 C208.28 964.36 187.41 964.36 166.54 964.37 C143.57 964.38 120.61 964.38 97.64 964.38 C84.79 964.37 71.94 964.37 59.08 964.38 C50.5 964.39 41.91 964.39 33.32 964.38 C28.43 964.38 23.54 964.38 18.65 964.38 C14.19 964.39 9.74 964.39 5.28 964.38 C3.69 964.38 2.09 964.38 0.5 964.39 C-18.85 964.45 -42.74 963.69 -57.72 949.84 C-59.44 948.11 -61.15 946.37 -62.83 944.61 C-64.95 942.43 -67.11 940.46 -69.43 938.5 C-72.79 935.63 -75.68 932.53 -78.52 929.15 C-79.66 927.82 -80.84 926.52 -82.06 925.27 C-95.32 911.43 -96.43 890.6 -96.84 872.46 C-96.88 870.95 -96.92 869.44 -96.96 867.93 C-97.32 853.35 -97.39 838.77 -97.37 824.19 C-97.37 820.39 -97.37 816.6 -97.37 812.8 C-97.38 806.19 -97.38 799.58 -97.38 792.97 C-97.37 783.13 -97.37 773.3 -97.38 763.47 C-97.38 745.89 -97.38 728.32 -97.38 710.74 C-97.38 695.36 -97.38 679.98 -97.38 664.6 C-97.38 663.58 -97.38 662.55 -97.38 661.5 C-97.38 657.34 -97.38 653.18 -97.38 649.02 C-97.38 610.09 -97.38 571.16 -97.37 532.23 C-97.37 497.72 -97.37 463.21 -97.37 428.7 C-97.38 389.83 -97.38 350.97 -97.38 312.11 C-97.38 307.95 -97.38 303.8 -97.38 299.65 C-97.38 298.63 -97.38 297.61 -97.38 296.56 C-97.38 281.2 -97.38 265.83 -97.38 250.47 C-97.38 232.98 -97.38 215.5 -97.38 198.01 C-97.37 188.25 -97.37 178.49 -97.38 168.73 C-97.38 162.19 -97.38 155.64 -97.37 149.09 C-97.37 145.38 -97.37 141.67 -97.37 137.96 C-97.39 123.31 -97.28 108.68 -96.9 94.04 C-96.86 92.57 -96.83 91.11 -96.8 89.64 C-96.36 71.04 -94.14 49.99 -80.24 36.13 C-78.76 35.63 -78.76 35.63 -77.24 35.13 C-76.53 33.82 -75.87 32.48 -75.24 31.13 C-74.16 29.74 -73.03 28.39 -71.87 27.07 C-71.28 26.39 -70.7 25.72 -70.09 25.03 C-68.25 23.14 -66.45 21.58 -64.24 20.13 C-63.58 20.13 -62.92 20.13 -62.24 20.13 C-61.87 19.24 -61.87 19.24 -61.49 18.34 C-57.13 10.58 -47.28 6.76 -39.24 4.13 C-26.13 0.68 -13.47 -0.02 0 0 Z M17.1 113.46 C12.36 119.98 13.76 130.17 13.83 137.82 C13.82 139.76 13.82 141.71 13.81 143.65 C13.8 147.73 13.81 151.8 13.84 155.87 C13.88 161.08 13.86 166.29 13.82 171.5 C13.79 175.51 13.8 179.53 13.82 183.55 C13.83 185.47 13.82 187.39 13.8 189.31 C13.29 200.58 13.29 200.58 17.1 210.8 C23.54 215.46 33.6 214.15 41.19 214.09 C43.11 214.1 45.03 214.11 46.95 214.12 C50.98 214.14 55 214.12 59.02 214.1 C64.16 214.06 69.29 214.1 74.43 214.15 C78.4 214.18 82.36 214.18 86.33 214.16 C88.23 214.16 90.12 214.17 92.01 214.19 C103.58 214.63 103.58 214.63 113.91 210.27 C119.07 203.49 117.9 193.89 117.82 185.82 C117.83 183.92 117.83 182.02 117.84 180.12 C117.85 176.16 117.84 172.19 117.8 168.22 C117.75 163.15 117.78 158.08 117.83 153.01 C117.86 149.09 117.85 145.18 117.83 141.26 C117.82 139.39 117.83 137.53 117.85 135.66 C118.24 124.21 118.24 124.21 113.91 113.99 C107.09 108.77 97.33 110.01 89.19 110.1 C87.27 110.1 85.35 110.09 83.42 110.09 C79.4 110.08 75.39 110.1 71.37 110.14 C66.23 110.19 61.09 110.18 55.95 110.14 C51.98 110.12 48.02 110.13 44.05 110.15 C42.15 110.16 40.26 110.16 38.36 110.14 C27.2 109.68 27.2 109.68 17.1 113.46 Z M825.92 116.19 C823.11 123.27 823.62 130.94 823.69 138.44 C823.69 140.34 823.68 142.24 823.67 144.13 C823.66 148.1 823.68 152.07 823.71 156.04 C823.76 161.11 823.73 166.18 823.69 171.25 C823.66 175.16 823.67 179.08 823.69 182.99 C823.69 184.86 823.69 186.73 823.67 188.6 C823.27 200.05 823.27 200.05 827.6 210.27 C834.43 215.49 844.18 214.25 852.32 214.16 C854.25 214.16 856.17 214.16 858.09 214.17 C862.11 214.18 866.13 214.16 870.15 214.12 C875.29 214.07 880.43 214.08 885.57 214.12 C889.53 214.14 893.5 214.13 897.46 214.1 C899.36 214.1 901.25 214.1 903.15 214.11 C914.32 214.58 914.32 214.58 924.41 210.8 C929.16 204.28 927.75 194.09 927.69 186.44 C927.69 184.49 927.7 182.55 927.71 180.6 C927.72 176.53 927.7 172.46 927.67 168.39 C927.63 163.18 927.65 157.97 927.69 152.76 C927.72 148.75 927.71 144.73 927.69 140.71 C927.69 138.79 927.69 136.87 927.71 134.95 C928.23 123.68 928.23 123.68 924.41 113.46 C917.98 108.8 907.91 110.11 900.32 110.16 C898.4 110.16 896.48 110.15 894.56 110.14 C890.54 110.12 886.52 110.13 882.5 110.16 C877.36 110.2 872.22 110.16 867.08 110.11 C863.12 110.08 859.15 110.08 855.18 110.1 C853.29 110.1 851.4 110.09 849.5 110.07 C836.34 109.46 836.34 109.46 825.92 116.19 Z M344.76 291.13 C343.32 291.35 343.32 291.35 341.86 291.59 C338.73 292.1 335.62 292.67 332.51 293.25 C331.49 293.42 330.48 293.58 329.44 293.75 C328.49 293.94 327.54 294.13 326.55 294.32 C325.28 294.56 325.28 294.56 323.97 294.79 C319.36 297.57 318.47 304.99 317.18 309.97 C313.14 326.9 311.87 342.98 311.97 360.35 C311.99 363.95 311.97 367.56 311.95 371.17 C311.92 378.19 311.93 385.21 311.95 392.23 C311.96 397.95 311.96 403.67 311.95 409.39 C311.95 410.62 311.95 410.62 311.95 411.88 C311.95 413.55 311.95 415.21 311.95 416.88 C311.93 432.45 311.95 448.02 311.98 463.58 C312.01 476.87 312 490.16 311.97 503.46 C311.94 518.98 311.93 534.5 311.95 550.02 C311.95 551.68 311.95 553.34 311.95 555 C311.96 555.82 311.96 556.64 311.96 557.48 C311.96 563.18 311.95 568.87 311.94 574.57 C311.92 581.53 311.93 588.5 311.96 595.46 C311.97 599 311.98 602.54 311.96 606.07 C311.87 626.69 313.25 648 321.76 667.13 C324.64 668.83 324.64 668.83 328.16 669.41 C330.08 669.83 330.08 669.83 332.05 670.27 C333.41 670.54 334.77 670.8 336.13 671.07 C337.45 671.36 338.78 671.65 340.1 671.94 C348.28 673.72 356.39 674.72 364.76 675.13 C365.47 673.64 365.47 673.64 366.19 672.13 C373.11 658.11 380.7 651.35 395.76 646.13 C397.98 645.52 400.21 644.93 402.44 644.38 C409.97 642.46 417.3 640.06 424.63 637.5 C426.36 636.94 426.36 636.94 428.13 636.36 C436.62 633.32 441.26 629.18 446.76 622.13 C448.4 620.44 450.07 618.77 451.76 617.13 C452.21 616.6 452.66 616.07 453.12 615.52 C461.37 606.25 472.48 603.01 484.13 600.19 C502.14 595.92 502.14 595.92 515.69 584.13 C516.46 582.86 516.46 582.86 517.23 581.57 C526.95 566.01 548.98 559.2 565.76 555.13 C568.11 554.62 570.46 554.12 572.82 553.63 C579.83 552.05 587.21 549.89 591.41 543.69 C592.63 541.2 593.7 538.69 594.76 536.13 C600.17 527.51 609.92 523.41 618.98 519.73 C623.01 518.06 626.88 516.11 630.76 514.13 C637.12 510.88 643.56 507.99 650.16 505.26 C652.64 504.37 652.64 504.37 653.76 503.13 C653.92 500.03 654.02 496.95 654.07 493.84 C654.1 492.45 654.1 492.45 654.14 491.02 C654.2 488.04 654.26 485.05 654.32 482.07 C654.36 480.05 654.41 478.03 654.45 476.01 C654.56 471.05 654.66 466.09 654.76 461.13 C653.99 460.81 653.22 460.5 652.44 460.18 C646.27 457.63 640.16 455 634.13 452.13 C633.4 451.78 632.68 451.44 631.93 451.08 C627.31 448.89 622.72 446.66 618.16 444.34 C616.34 443.42 614.5 442.52 612.66 441.63 C611.07 440.86 611.07 440.86 609.44 440.07 C608.48 439.6 607.51 439.14 606.52 438.66 C601.61 435.94 598.28 432.87 595.13 428.25 C594.56 427.43 593.99 426.61 593.41 425.76 C591.76 423.13 591.76 423.13 590.36 420 C587.48 414.83 582.21 412.95 576.76 411.13 C572.89 410.14 568.97 409.41 565.04 408.66 C547.61 405.25 529.85 397.49 517.76 384.13 C516.71 382.46 515.69 380.77 514.69 379.07 C508 368.99 494.07 365.86 482.87 363.49 C469.37 360.63 459.4 355.75 450.55 345.15 C448.11 342.4 445.38 340.1 442.55 337.77 C440.76 336.13 440.76 336.13 439.54 334.19 C437.15 331.42 434.86 330.71 431.43 329.47 C430.8 329.24 430.18 329.01 429.53 328.78 C428.2 328.3 426.87 327.82 425.54 327.35 C423.55 326.64 421.57 325.92 419.59 325.2 C411.86 322.39 404.11 320.05 396.11 318.08 C385.76 315.13 375.96 309.84 370.49 300.35 C368.47 296.66 366.59 292.91 364.76 289.13 C358 288.99 351.41 290.06 344.76 291.13 Z M16.76 329.13 C14.24 332.91 14.44 335.96 14.42 340.34 C14.41 341.18 14.4 342.02 14.38 342.88 C14.35 345.66 14.33 348.43 14.32 351.21 C14.31 352.16 14.3 353.1 14.29 354.08 C14.26 359.1 14.24 364.12 14.22 369.14 C14.21 374.32 14.15 379.5 14.08 384.68 C14.03 388.67 14.02 392.65 14.02 396.64 C14.01 398.55 13.99 400.46 13.96 402.37 C13.34 413.6 13.34 413.6 17.09 423.8 C23.59 428.5 33.66 427.08 41.26 426.99 C43.19 426.99 45.11 426.99 47.04 426.99 C51.07 427 55.1 426.97 59.13 426.93 C64.28 426.88 69.44 426.88 74.6 426.9 C78.57 426.91 82.55 426.9 86.52 426.88 C88.42 426.87 90.32 426.87 92.22 426.87 C94.88 426.87 97.54 426.85 100.2 426.81 C100.98 426.81 101.76 426.82 102.57 426.83 C108.28 426.7 110.76 425.21 114.76 421.13 C117.27 417.37 117.07 414.37 117.1 410 C117.11 409.18 117.12 408.35 117.13 407.5 C117.16 404.75 117.18 402.01 117.2 399.27 C117.21 398.33 117.21 397.39 117.22 396.43 C117.26 391.47 117.28 386.51 117.29 381.54 C117.31 376.42 117.37 371.31 117.44 366.19 C117.48 362.25 117.49 358.31 117.5 354.36 C117.51 352.48 117.53 350.59 117.56 348.7 C118.06 338.71 118.06 338.71 115.22 329.41 C111.91 326.02 109.1 324.19 104.33 323.97 C102.83 323.96 101.33 323.94 99.82 323.94 C99 323.93 98.18 323.92 97.34 323.91 C94.62 323.89 91.9 323.87 89.18 323.86 C88.25 323.85 87.32 323.84 86.37 323.84 C81.45 323.81 76.54 323.79 71.62 323.78 C66.54 323.76 61.47 323.72 56.39 323.67 C52.49 323.63 48.59 323.62 44.68 323.62 C42.81 323.61 40.94 323.59 39.07 323.57 C36.45 323.54 33.83 323.54 31.21 323.55 C30.44 323.53 29.67 323.51 28.88 323.5 C23.02 323.56 20.7 325.1 16.76 329.13 Z M825.76 331.13 C825.43 331.46 825.1 331.79 824.76 332.13 C824.64 334.77 824.58 337.39 824.56 340.04 C824.56 340.87 824.55 341.7 824.54 342.55 C824.51 345.31 824.5 348.07 824.48 350.83 C824.48 351.77 824.47 352.71 824.47 353.68 C824.44 358.66 824.42 363.64 824.41 368.62 C824.39 373.76 824.35 378.9 824.29 384.05 C824.26 388 824.25 391.96 824.24 395.91 C824.24 397.81 824.22 399.7 824.2 401.6 C824.17 404.26 824.17 406.91 824.17 409.57 C824.16 410.35 824.14 411.13 824.12 411.94 C824.17 415.92 824.57 418.38 827.11 421.54 C831.71 426.04 834.8 426.44 840.97 426.47 C841.81 426.48 842.65 426.49 843.51 426.5 C846.29 426.54 849.06 426.55 851.84 426.57 C852.78 426.58 853.73 426.58 854.71 426.59 C859.73 426.63 864.75 426.65 869.77 426.66 C874.95 426.68 880.13 426.74 885.31 426.81 C889.3 426.85 893.28 426.87 897.27 426.87 C899.18 426.88 901.09 426.9 903 426.93 C914.23 427.55 914.23 427.55 924.43 423.8 C929.13 417.3 927.68 407.2 927.58 399.59 C927.58 397.66 927.58 395.73 927.58 393.8 C927.58 389.77 927.55 385.74 927.5 381.7 C927.45 376.54 927.44 371.37 927.45 366.21 C927.45 362.23 927.43 358.25 927.41 354.27 C927.4 352.37 927.39 350.46 927.39 348.56 C927.39 345.89 927.36 343.23 927.32 340.57 C927.33 339.79 927.33 339 927.33 338.19 C927.23 333.19 926.34 330.62 922.76 327.13 C922.18 326.54 921.61 325.95 921.02 325.34 C917.66 323.54 914.35 323.68 910.63 323.68 C909.4 323.66 909.4 323.66 908.15 323.64 C905.45 323.61 902.75 323.6 900.05 323.59 C898.17 323.58 896.29 323.56 894.41 323.55 C890.47 323.53 886.52 323.52 882.58 323.52 C877.54 323.51 872.5 323.46 867.45 323.4 C863.57 323.36 859.68 323.35 855.8 323.35 C853.94 323.34 852.08 323.33 850.22 323.3 C836.25 322.77 836.25 322.77 825.76 331.13 Z M15.68 542.39 C13.27 549.53 13.83 557.23 13.93 564.67 C13.94 566.6 13.94 568.52 13.93 570.45 C13.94 574.49 13.96 578.52 14.01 582.55 C14.07 587.72 14.07 592.88 14.07 598.05 C14.06 602.03 14.08 606.01 14.11 609.99 C14.12 611.89 14.12 613.8 14.12 615.7 C14.12 618.36 14.15 621.02 14.19 623.69 C14.19 624.47 14.19 625.25 14.18 626.06 C14.29 631.06 15.17 633.63 18.76 637.13 C19.33 637.72 19.91 638.31 20.5 638.91 C23.86 640.72 27.16 640.58 30.89 640.58 C31.7 640.59 32.52 640.6 33.36 640.62 C36.06 640.65 38.76 640.66 41.46 640.67 C43.34 640.68 45.22 640.69 47.1 640.71 C51.05 640.73 54.99 640.74 58.94 640.74 C63.98 640.74 69.02 640.8 74.06 640.86 C77.95 640.9 81.83 640.91 85.72 640.91 C87.58 640.91 89.43 640.93 91.29 640.96 C102.88 641.54 102.88 641.54 112.9 636.64 C114.55 634.83 114.55 634.83 115.76 633.13 C116.09 632.8 116.42 632.47 116.76 632.13 C116.88 629.48 116.94 626.86 116.95 624.22 C116.96 623.39 116.97 622.56 116.97 621.7 C117 618.94 117.02 616.19 117.03 613.43 C117.04 612.02 117.04 612.02 117.05 610.58 C117.07 605.6 117.09 600.62 117.11 595.64 C117.12 590.5 117.17 585.35 117.22 580.21 C117.25 576.25 117.26 572.3 117.27 568.35 C117.28 566.45 117.29 564.55 117.32 562.66 C117.35 560 117.35 557.35 117.34 554.69 C117.36 553.91 117.37 553.13 117.39 552.32 C117.34 548.34 116.95 545.87 114.41 542.72 C109.8 538.22 106.72 537.82 100.54 537.79 C99.7 537.78 98.87 537.77 98 537.76 C95.23 537.72 92.45 537.7 89.68 537.69 C88.73 537.68 87.78 537.67 86.81 537.67 C81.79 537.63 76.77 537.61 71.74 537.59 C66.56 537.58 61.39 537.52 56.21 537.45 C52.22 537.41 48.23 537.39 44.24 537.39 C42.34 537.38 40.43 537.36 38.52 537.33 C25.84 536.45 25.84 536.45 15.68 542.39 Z M824.76 546.13 C824.54 548.87 824.43 551.51 824.42 554.25 C824.41 555.08 824.4 555.91 824.38 556.76 C824.35 559.5 824.33 562.25 824.32 564.99 C824.31 565.93 824.3 566.86 824.29 567.83 C824.26 572.79 824.24 577.75 824.22 582.71 C824.21 587.83 824.15 592.95 824.08 598.07 C824.03 602.01 824.02 605.95 824.02 609.89 C824.01 611.78 823.99 613.67 823.96 615.55 C823.46 625.55 823.46 625.55 826.3 634.85 C829.6 638.24 832.41 640.07 837.18 640.28 C838.69 640.3 840.19 640.31 841.69 640.32 C842.92 640.33 842.92 640.33 844.18 640.35 C846.9 640.37 849.62 640.39 852.34 640.4 C853.26 640.41 854.19 640.41 855.15 640.42 C860.06 640.44 864.98 640.46 869.89 640.48 C874.97 640.5 880.04 640.54 885.12 640.59 C889.02 640.62 892.93 640.64 896.83 640.64 C898.7 640.65 900.57 640.66 902.44 640.69 C905.06 640.72 907.68 640.72 910.31 640.71 C911.08 640.73 911.85 640.74 912.64 640.76 C918.5 640.69 920.81 639.16 924.76 635.13 C927.28 631.35 927.07 628.3 927.1 623.91 C927.11 623.08 927.12 622.24 927.13 621.37 C927.16 618.6 927.18 615.83 927.2 613.05 C927.21 612.1 927.21 611.15 927.22 610.18 C927.26 605.16 927.28 600.14 927.29 595.12 C927.31 589.94 927.37 584.76 927.44 579.58 C927.48 575.59 927.49 571.6 927.5 567.62 C927.51 565.71 927.53 563.8 927.56 561.89 C928.18 550.66 928.18 550.66 924.43 540.46 C917.93 535.76 907.86 537.18 900.25 537.27 C898.33 537.27 896.4 537.27 894.47 537.26 C890.45 537.26 886.42 537.28 882.39 537.33 C877.23 537.38 872.08 537.37 866.92 537.36 C862.94 537.34 858.97 537.36 854.99 537.38 C853.09 537.39 851.19 537.39 849.29 537.39 C846.63 537.38 843.97 537.41 841.31 537.45 C840.53 537.44 839.75 537.44 838.95 537.43 C832 537.59 828.64 540.3 824.76 546.13 Z M17.1 753.46 C12.36 759.98 13.76 770.17 13.83 777.82 C13.82 779.76 13.82 781.71 13.81 783.65 C13.8 787.73 13.81 791.8 13.84 795.87 C13.88 801.08 13.86 806.29 13.82 811.5 C13.79 815.51 13.8 819.53 13.82 823.55 C13.83 825.47 13.82 827.39 13.8 829.31 C13.29 840.58 13.29 840.58 17.1 850.8 C23.54 855.46 33.6 854.15 41.19 854.09 C43.11 854.1 45.03 854.11 46.95 854.12 C50.98 854.14 55 854.12 59.02 854.1 C64.16 854.06 69.29 854.1 74.43 854.15 C78.4 854.18 82.36 854.18 86.33 854.16 C88.23 854.16 90.12 854.17 92.01 854.19 C103.58 854.63 103.58 854.63 113.91 850.27 C119.07 843.49 117.9 833.89 117.82 825.82 C117.83 823.92 117.83 822.02 117.84 820.12 C117.85 816.16 117.84 812.19 117.8 808.22 C117.75 803.15 117.78 798.08 117.83 793.01 C117.86 789.09 117.85 785.18 117.83 781.26 C117.82 779.39 117.83 777.53 117.85 775.66 C118.24 764.21 118.24 764.21 113.91 753.99 C107.09 748.77 97.33 750.01 89.19 750.1 C87.27 750.1 85.35 750.09 83.42 750.09 C79.4 750.08 75.39 750.1 71.37 750.14 C66.23 750.19 61.09 750.18 55.95 750.14 C51.98 750.12 48.02 750.13 44.05 750.15 C42.15 750.16 40.26 750.16 38.36 750.14 C27.2 749.68 27.2 749.68 17.1 753.46 Z M825.92 756.19 C823.11 763.27 823.62 770.94 823.69 778.44 C823.69 780.34 823.68 782.24 823.67 784.13 C823.66 788.1 823.68 792.07 823.71 796.04 C823.76 801.11 823.73 806.18 823.69 811.25 C823.66 815.16 823.67 819.08 823.69 822.99 C823.69 824.86 823.69 826.73 823.67 828.6 C823.27 840.05 823.27 840.05 827.6 850.27 C834.43 855.49 844.18 854.25 852.32 854.16 C854.25 854.16 856.17 854.16 858.09 854.17 C862.11 854.18 866.13 854.16 870.15 854.12 C875.29 854.07 880.43 854.08 885.57 854.12 C889.53 854.14 893.5 854.13 897.46 854.1 C899.36 854.1 901.25 854.1 903.15 854.11 C914.32 854.58 914.32 854.58 924.41 850.8 C929.16 844.28 927.75 834.09 927.69 826.44 C927.69 824.49 927.7 822.55 927.71 820.6 C927.72 816.53 927.7 812.46 927.67 808.39 C927.63 803.18 927.65 797.97 927.69 792.76 C927.72 788.75 927.71 784.73 927.69 780.71 C927.69 778.79 927.69 776.87 927.71 774.95 C928.23 763.68 928.23 763.68 924.41 753.46 C917.98 748.8 907.91 750.11 900.32 750.16 C898.4 750.16 896.48 750.15 894.56 750.14 C890.54 750.12 886.52 750.13 882.5 750.16 C877.36 750.2 872.22 750.16 867.08 750.11 C863.12 750.08 859.15 750.08 855.18 750.1 C853.29 750.1 851.4 750.09 849.5 750.07 C836.34 749.46 836.34 749.46 825.92 756.19 Z " fill="#000002" transform="translate(169.2428216934204,157.87136554718018)"/>
</svg>
